<svg width="228" height="52" viewBox="0 0 228 52" fill="none" xmlns="http://www.w3.org/2000/svg">
<path d="M33 23.4122L31.5543 20.5834L29.9083 18.5108L27.4177 17.1665L24.8126 15.8781L21.9213 15.5L16.2245 16.7743L13.8627 18.4828L12.3025 20.9615L11.4437 23.7483L11 26.577V29.5738L14.0631 34.1251L16.4678 35.7355L18.987 36.7578L21.7495 37.332L22.0501 37.5L25.2134 37.1919L27.7326 36.0716L29.9512 33.957L32.9857 29.4198V23.4262L33 23.4122ZM26.1724 28.7756L24.5693 30.7362L21.9356 31.1003L19.3305 30.6101L17.6558 29.1397L16.7254 26.661L17.5843 23.7903L19.4307 22.0118L21.9213 21.3676L24.3403 22.1938L26.244 23.7623L26.974 26.423L26.1724 28.7756Z" fill="#F3EBDA"/>
<path d="M11 15.1433L11.2769 12.3327L11.3461 10.4209L11.2215 8.26654L13.6998 7.72438L16.5658 5.84112L18.7671 4.81388L21.8408 4.5L24.596 4.91375L26.0913 5.72698L28.3757 7.18223L30.5771 8.18093L32.7646 8.20947L32.6262 10.6492V13.3599L33 15.1433L30.4663 15.5L26.1466 13.0318L23.9868 11.9617L21.5777 11.4196L18.6425 12.0759L16.3027 13.6738L13.686 14.7296L11 15.1433Z" fill="#EA7F24"/>
<path d="M33.014 14.5L33.8246 17.6428L35.1385 20.3909L36.662 22.519L36.4244 25.6336L36.662 28.2408L35.1245 30.6366L33.9504 32.5674L33.2097 34.8928L33 37.2886L36.3964 37.1195H37.9759L40.2961 37.5L40.7992 32.3842L42.3507 30.0729L43.8183 28.2408L44 24.9853L43.2033 22.6176L41.9873 19.9259L40.3659 17.7696L40.1283 14.8523L35.3482 15.1342L33.014 14.5Z" fill="#BCC63A"/>
<path d="M32.9728 37.5146L32.6188 39.9801L32.8639 42.4748L33 44.9257H30.2364L27.854 46.8223L25.1584 48.1499L20.2847 48.5L17.8886 47.4204L15.9146 45.9761L13.7092 44.9695L11.245 44.9257L11 42.3143L11.245 39.63L11.3403 37.5L14.8936 37.9377L16.1188 38.244L17.9022 39.8634L19.9851 41.2493L22.5718 41.3515L25.349 40.7387L30.1955 37.9377L32.9728 37.5146Z" fill="#54C5CD"/>
<path d="M11 14.5L8.47335 14.9694L6.05838 14.8556L3.89467 14.9694L3.67132 17.3306L2.52665 19.649L1.4099 21.6973L0.725888 24.286L0 26.7894L1.38198 30.8006L2.09391 32.2087L3.7132 34.4988L3.99239 37.1871L6.43528 37.5L10.986 37.4858L10.8883 34.3707L7.51015 29.4777L7.39848 26.5476L7.85914 24.0015L8.93401 21.3986L9.91117 19.5921L10.1485 17.0745L11 14.5Z" fill="#BD61A6"/>
<path d="M51.3977 9.3501H57.4569L64.0222 18.3334C64.5986 19.1348 65.175 19.908 65.7654 20.7234V9.3501H71.8809V31.2813H65.8639L59.2283 22.2558C58.6519 21.4544 58.1036 20.6812 57.5553 19.908V31.2813H51.3977V9.3501Z" fill="#F3ECDA"/>
<path d="M73.3571 22.523C73.3571 17.0824 77.195 13.1882 82.6356 13.1882C88.0763 13.1882 91.9142 17.0824 91.9142 22.4949C91.9142 27.9074 88.0481 31.8719 82.6356 31.8719C77.2231 31.8719 73.3571 27.9777 73.3571 22.5371V22.523ZM86.1784 22.4949C86.1784 20.2737 84.8288 18.432 82.6356 18.432C80.4425 18.432 79.0648 20.2737 79.0648 22.523C79.0648 24.7724 80.4566 26.6141 82.6356 26.6141C84.8147 26.6141 86.1784 24.7443 86.1784 22.4949Z" fill="#F3ECDA"/>
<path d="M93.1372 13.7927H98.8731V15.8875H98.9433C99.8712 14.2707 101.291 13.6943 102.584 13.6943C103.878 13.6943 103.203 13.6943 103.555 13.7927V19.0787H102.163C99.9415 19.0787 98.8731 20.5267 98.8731 22.8745V31.2815H93.1372V13.7927Z" fill="#F3ECDA"/>
<path d="M106.437 19.0785H104.117V13.7926H106.437V9.3501H112.201V13.7926H115.546V19.0785H112.201V31.2813H106.437V19.0785Z" fill="#F3ECDA"/>
<path d="M116.559 7.84595H122.294V15.9014H122.323C123.518 13.9333 125.57 13.4272 127.116 13.4272C131.053 13.4272 133.077 16.2248 133.077 19.9081V31.3095H127.341V21.5811C127.341 19.88 126.442 18.6569 124.867 18.6569C123.293 18.6569 122.294 19.88 122.294 21.6513V31.3095H116.559V7.84595Z" fill="#F3ECDA"/>
<path d="M140.458 29.5522H140.388V31.2954H134.652V7.84595H140.388V15.5078H140.458C141.653 14.0317 143.481 13.3569 145.252 13.3569C149.793 13.3569 153.237 17.1245 153.237 22.5089C153.237 27.8933 149.596 31.6891 145.28 31.6891C140.964 31.6891 141.639 31.0143 140.444 29.5663L140.458 29.5522ZM147.473 22.4949C147.473 20.2455 146.025 18.5304 143.902 18.5304C141.779 18.5304 140.331 20.1752 140.331 22.4949C140.331 24.8145 141.808 26.4875 143.902 26.4875C145.997 26.4875 147.473 24.7442 147.473 22.4949Z" fill="#F3ECDA"/>
<path d="M154.137 22.523C154.137 17.0824 157.975 13.1882 163.415 13.1882C168.856 13.1882 172.694 17.0824 172.694 22.4949C172.694 27.9074 168.828 31.8719 163.415 31.8719C158.003 31.8719 154.137 27.9777 154.137 22.5371V22.523ZM166.958 22.4949C166.958 20.2737 165.609 18.432 163.415 18.432C161.222 18.432 159.845 20.2737 159.845 22.523C159.845 24.7724 161.236 26.6141 163.415 26.6141C165.594 26.6141 166.958 24.7443 166.958 22.4949Z" fill="#F3ECDA"/>
<path d="M173.847 24.196V13.7927H179.583V23.8445C179.583 25.4894 180.426 26.6422 182.001 26.6422C183.575 26.6422 184.419 25.4894 184.419 23.8445V13.7927H190.155V24.196C190.155 29.0321 186.963 31.8578 182.001 31.8578C177.038 31.8578 173.847 29.018 173.847 24.196Z" fill="#F3ECDA"/>
<path d="M191.701 13.7926H197.437V15.6905H197.507C198.505 14.2705 200.347 13.3989 202.273 13.3989C206.209 13.3989 208.234 16.1966 208.234 19.8799V31.2813H202.498V21.5528C202.498 19.8518 201.654 18.6287 199.981 18.6287C198.309 18.6287 197.437 19.9502 197.437 21.6231V31.2813H191.701V13.7926Z" fill="#F3ECDA"/>
<path d="M209.443 22.523C209.443 17.1386 212.859 13.3428 217.428 13.3428C221.997 13.3428 221.069 13.9614 222.194 15.4375H222.264C222.236 14.594 222.236 14.1863 222.236 13.2163V7.84595H228V31.2954H222.236C222.236 30.8175 222.236 30.1005 222.264 29.6225H222.194C221.041 30.9721 219.424 31.6891 217.358 31.6891C213.07 31.6891 209.429 27.8511 209.429 22.537L209.443 22.523ZM222.32 22.5651C222.32 20.2455 220.872 18.6007 218.778 18.6007C216.683 18.6007 215.165 20.3017 215.165 22.5651C215.165 24.8286 216.641 26.5577 218.778 26.5577C220.914 26.5577 222.32 24.8567 222.32 22.5651Z" fill="#F3ECDA"/>
<path d="M51.3977 35.2036H58.1176V37.6779H54.1532V39.14H57.9349V41.5159H54.1532V45.0164H51.3977V35.2036Z" fill="#F3ECDA"/>
<path d="M62.8131 40.1242C62.8131 37.0313 65.0062 34.9507 67.9585 34.9507C70.9108 34.9507 73.0898 37.0313 73.0898 40.1242C73.0898 43.2171 70.8967 45.2696 67.9585 45.2696C65.0203 45.2696 62.8131 43.1889 62.8131 40.1242ZM70.1516 40.1101C70.1516 38.6199 69.2941 37.5234 67.9585 37.5234C66.623 37.5234 65.7373 38.6199 65.7373 40.1101C65.7373 41.6003 66.623 42.7109 67.9585 42.7109C69.2941 42.7109 70.1516 41.6144 70.1516 40.1101Z" fill="#F3ECDA"/>
<path d="M78.0807 41.1083V35.2178H80.8361V40.9677C80.8361 41.9658 81.3985 42.6969 82.3826 42.6969C83.3667 42.6969 83.929 41.9799 83.929 40.9677V35.2178H86.6704V41.1083C86.6704 43.6388 84.9412 45.2696 82.3826 45.2696C79.8239 45.2696 78.0807 43.6247 78.0807 41.1083Z" fill="#F3ECDA"/>
<path d="M91.8719 35.2036H94.5852L97.5234 39.2243C97.7765 39.5899 98.0436 39.9273 98.2967 40.2928V35.2036H101.038V45.0164H98.3388L95.3725 40.9816C95.1195 40.6161 94.8664 40.2787 94.6274 39.9273V45.0164H91.8719V35.2036Z" fill="#F3ECDA"/>
<path d="M106.24 35.2036H110.387C113.339 35.2036 115.322 37.0312 115.322 40.1241C115.322 43.2169 113.353 45.0305 110.387 45.0305H106.24V35.2177V35.2036ZM110.331 42.5702C111.596 42.5702 112.383 41.5862 112.383 40.1241C112.383 38.662 111.624 37.6638 110.331 37.6638H108.995V42.5843H110.331V42.5702Z" fill="#F3ECDA"/>
<path d="M122.871 35.2036H125.922L129.549 45.0164H126.428L125.893 43.2591H122.674L122.098 45.0164H119.202L122.843 35.2036H122.871ZM125.247 40.9957L124.389 38.1699L123.447 40.9957H125.247Z" fill="#F3ECDA"/>
<path d="M135.144 37.7763H132.515V35.2036H140.5V37.7763H137.871V45.0305H135.13V37.7763H135.144Z" fill="#F3ECDA"/>
<path d="M145.364 35.2036H148.106V45.0164H145.364V35.2036Z" fill="#F3ECDA"/>
<path d="M153.139 40.1242C153.139 37.0313 155.332 34.9507 158.284 34.9507C161.236 34.9507 163.416 37.0313 163.416 40.1242C163.416 43.2171 161.222 45.2696 158.284 45.2696C155.346 45.2696 153.139 43.1889 153.139 40.1242ZM160.477 40.1101C160.477 38.6199 159.62 37.5234 158.284 37.5234C156.949 37.5234 156.063 38.6199 156.063 40.1101C156.063 41.6003 156.949 42.7109 158.284 42.7109C159.62 42.7109 160.477 41.6144 160.477 40.1101Z" fill="#F3ECDA"/>
<path d="M168.448 35.2036H171.162L174.1 39.2243C174.353 39.5899 174.62 39.9273 174.873 40.2928V35.2036H177.614V45.0164H174.915L171.949 40.9816C171.696 40.6161 171.443 40.2787 171.204 39.9273V45.0164H168.448V35.2036Z" fill="#F3ECDA"/>
</svg>
