<svg viewBox="0 0 488 109" fill="none" xmlns="http://www.w3.org/2000/svg">
  <path
    d="M70.6315 48.6685L67.5373 42.6781L64.0141 38.2892L58.6835 35.4423L53.1077 32.714L46.9192 31.9133L34.726 34.6119L29.671 38.2299L26.3317 43.4788L24.4935 49.3802L23.5438 55.3706V61.7168L30.1 71.3547L35.2468 74.765L40.6388 76.9298L46.5516 78.1457L47.1949 78.5016L53.9655 77.8492L59.3574 75.4767L64.106 70.9988L70.6009 61.3905V48.6981L70.6315 48.6685ZM56.0181 60.0264L52.5869 64.1781L46.9498 64.9492L41.374 63.9112L37.7896 60.7974L35.7983 55.5485L37.6364 49.4692L41.5885 45.703L46.9192 44.3388L52.0967 46.0885L56.1713 49.4099L57.7337 55.0443L56.0181 60.0264Z"
    fill="#0F715A" />
  <path
    d="M23.5438 31.1579L24.1365 25.206L24.2847 21.1575L24.018 16.5953L29.3224 15.4472L35.4565 11.4591L40.1682 9.28382L46.7469 8.61914L52.644 9.49531L55.8444 11.2174L60.7339 14.2992L65.4457 16.4141L70.1278 16.4745L69.8314 21.6409V27.3813L70.6315 31.1579L65.2086 31.9133L55.9629 26.6864L51.3401 24.4205L46.1839 23.2724L39.9015 24.6622L34.8935 28.046L29.2927 30.2818L23.5438 31.1579Z"
    fill="#EA7F24" />
  <path
    d="M70.6615 29.7957L72.3966 36.4509L75.2087 42.2706L78.4696 46.7771L77.961 53.3726L78.4696 58.8938L75.1788 63.9674L72.6659 68.056L71.0803 72.9803L70.6316 78.0539L77.9012 77.6957H81.2817L86.2477 78.5015L87.3247 67.6681L90.6454 62.7736L93.7865 58.8938L94.1755 51.9998L92.4702 46.986L89.8676 41.2857L86.3973 36.7195L85.8887 30.5418L75.6575 31.1386L70.6615 29.7957Z"
    fill="#BCC63A" />
  <path
    d="M70.5733 78.5324L69.8157 83.7535L70.3402 89.0363L70.6315 94.2265H64.7164L59.6172 98.2428L53.8478 101.054L43.4162 101.796L38.2879 99.5094L34.0628 96.4509L29.3424 94.3192L24.0683 94.2265L23.5438 88.6965L24.0683 83.012L24.2723 78.5015L31.8774 79.4283L34.4999 80.0771L38.317 83.5063L42.7752 86.4412L48.3115 86.6575L54.2557 85.3599L64.629 79.4283L70.5733 78.5324Z"
    fill="#54C5CD" />
  <path
    d="M23.5439 29.7957L18.1359 30.7897L12.967 30.5487L8.33596 30.7897L7.85791 35.7898L5.40792 40.6995L3.01768 45.037L1.55366 50.519L0 55.8203L2.95792 64.3145L4.4817 67.2965L7.94755 72.146L8.54511 77.8389L13.7738 78.5015L23.514 78.4714L23.3048 71.8749L16.0744 61.5132L15.8353 55.3083L16.8213 49.9166L19.1219 44.4044L21.2134 40.579L21.7213 35.2476L23.5439 29.7957Z"
    fill="#BD61A6" />
  <path
    d="M110.009 18.8901H122.978L137.03 37.9137C138.264 39.6106 139.497 41.248 140.761 42.9747V18.8901H153.85V65.3326H140.972L126.769 46.2198C125.536 44.5228 124.362 42.8854 123.189 41.248V65.3326H110.009V18.8901Z"
    fill="#0F715A" />
  <path
    d="M157.01 46.7854C157.01 35.2641 165.224 27.0176 176.869 27.0176C188.514 27.0176 196.729 35.2641 196.729 46.7259C196.729 58.1876 188.454 66.583 176.869 66.583C165.285 66.583 157.01 58.3365 157.01 46.8152V46.7854ZM184.452 46.7259C184.452 42.0221 181.563 38.1221 176.869 38.1221C172.175 38.1221 169.226 42.0221 169.226 46.7854C169.226 51.5487 172.205 55.4487 176.869 55.4487C181.533 55.4487 184.452 51.4892 184.452 46.7259Z"
    fill="#0F715A" />
  <path
    d="M199.346 28.2978H211.623V32.7336H211.774C213.76 29.31 216.799 28.0894 219.567 28.0894C222.335 28.0894 220.891 28.0894 221.643 28.2978V39.4916H218.664C213.91 39.4916 211.623 42.558 211.623 47.5297V65.3327H199.346V28.2978Z"
    fill="#0F715A" />
  <path
    d="M227.812 39.4916H222.847V28.2977H227.812V18.8901H240.148V28.2977H247.31V39.4916H240.148V65.3326H227.812V39.4916Z"
    fill="#0F715A" />
  <path
    d="M249.476 15.7046H261.753V32.7633H261.813C264.371 28.5954 268.764 27.5236 272.074 27.5236C280.499 27.5236 284.832 33.448 284.832 41.248V65.3921H272.555V44.7907C272.555 41.1884 270.63 38.5984 267.26 38.5984C263.89 38.5984 261.753 41.1884 261.753 44.9396V65.3921H249.476V15.7046Z"
    fill="#0F715A" />
  <path
    d="M300.629 61.6708H300.479V65.3624H288.202V15.7046H300.479V31.9297H300.629C303.187 28.8038 307.099 27.3748 310.89 27.3748C320.609 27.3748 327.981 35.3533 327.981 46.7556C327.981 58.1578 320.188 66.1959 310.95 66.1959C301.713 66.1959 303.157 64.7669 300.599 61.7005L300.629 61.6708ZM315.644 46.7258C315.644 41.9625 312.545 38.3304 308.001 38.3304C303.458 38.3304 300.359 41.8136 300.359 46.7258C300.359 51.638 303.518 55.1807 308.001 55.1807C312.485 55.1807 315.644 51.4891 315.644 46.7258Z"
    fill="#0F715A" />
  <path
    d="M329.907 46.7854C329.907 35.2641 338.122 27.0176 349.766 27.0176C361.411 27.0176 369.626 35.2641 369.626 46.7259C369.626 58.1876 361.351 66.583 349.766 66.583C338.182 66.583 329.907 58.3365 329.907 46.8152V46.7854ZM357.349 46.7259C357.349 42.0221 354.46 38.1221 349.766 38.1221C345.072 38.1221 342.124 42.0221 342.124 46.7854C342.124 51.5487 345.102 55.4487 349.766 55.4487C354.43 55.4487 357.349 51.4892 357.349 46.7259Z"
    fill="#0F715A" />
  <path
    d="M372.093 50.328V28.2976H384.37V49.5838C384.37 53.0669 386.175 55.5082 389.545 55.5082C392.916 55.5082 394.721 53.0669 394.721 49.5838V28.2976H406.998V50.328C406.998 60.5692 400.167 66.5531 389.545 66.5531C378.924 66.5531 372.093 60.5394 372.093 50.328Z"
    fill="#0F715A" />
  <path
    d="M410.308 28.2977H422.584V32.3168H422.735C424.871 29.3099 428.813 27.4641 432.935 27.4641C441.361 27.4641 445.693 33.3885 445.693 41.1885V65.3326H433.417V44.7312C433.417 41.1289 431.611 38.5389 428.031 38.5389C424.45 38.5389 422.584 41.3373 422.584 44.8801V65.3326H410.308V28.2977Z"
    fill="#0F715A" />
  <path
    d="M448.281 46.7853C448.281 35.3831 455.593 27.345 465.372 27.345C475.152 27.345 473.166 28.6549 475.573 31.7808H475.723C475.663 29.9946 475.663 29.1312 475.663 27.0771V15.7046H488V65.3624H475.663C475.663 64.3501 475.663 62.8318 475.723 61.8196H475.573C473.105 64.6776 469.645 66.1959 465.222 66.1959C456.044 66.1959 448.251 58.0685 448.251 46.8151L448.281 46.7853ZM475.844 46.8747C475.844 41.9625 472.744 38.4793 468.261 38.4793C463.778 38.4793 460.528 42.0816 460.528 46.8747C460.528 51.6678 463.687 55.3296 468.261 55.3296C472.835 55.3296 475.844 51.7273 475.844 46.8747Z"
    fill="#0F715A" />
  <path d="M110.009 73.6387H124.392V78.8783H115.907V81.9745H124.001V87.0058H115.907V94.4187H110.009V73.6387Z"
    fill="#0F715A" />
  <path
    d="M134.442 84.0585C134.442 77.5089 139.136 73.1028 145.455 73.1028C151.774 73.1028 156.438 77.5089 156.438 84.0585C156.438 90.608 151.744 94.9546 145.455 94.9546C139.166 94.9546 134.442 90.5485 134.442 84.0585ZM150.149 84.0287C150.149 80.873 148.314 78.5508 145.455 78.5508C142.597 78.5508 140.701 80.873 140.701 84.0287C140.701 87.1844 142.597 89.5363 145.455 89.5363C148.314 89.5363 150.149 87.2142 150.149 84.0287Z"
    fill="#0F715A" />
  <path
    d="M167.12 86.1424V73.6685H173.018V85.8447C173.018 87.9585 174.221 89.5065 176.328 89.5065C178.434 89.5065 179.637 87.9882 179.637 85.8447V73.6685H185.505V86.1424C185.505 91.5012 181.804 94.9546 176.328 94.9546C170.851 94.9546 167.12 91.4714 167.12 86.1424Z"
    fill="#0F715A" />
  <path
    d="M196.638 73.6387H202.446L208.734 82.1531C209.276 82.9272 209.848 83.6417 210.389 84.4157V73.6387H216.257V94.4187H210.48L204.131 85.8745C203.589 85.1004 203.047 84.3859 202.536 83.6417V94.4187H196.638V73.6387Z"
    fill="#0F715A" />
  <path
    d="M227.39 73.6387H236.267C242.586 73.6387 246.829 77.5089 246.829 84.0585C246.829 90.608 242.616 94.4485 236.267 94.4485H227.39V73.6684V73.6387ZM236.147 89.2386C238.855 89.2386 240.54 87.1546 240.54 84.0585C240.54 80.9623 238.915 78.8486 236.147 78.8486H233.288V89.2684H236.147V89.2386Z"
    fill="#0F715A" />
  <path
    d="M262.987 73.6387H269.516L277.28 94.4187H270.6L269.456 90.6974H262.566L261.332 94.4187H255.133L262.927 73.6387H262.987ZM268.072 85.9043L266.237 79.9203L264.22 85.9043H268.072Z"
    fill="#0F715A" />
  <path d="M289.255 79.0867H283.629V73.6387H300.72V79.0867H295.093V94.4485H289.225V79.0867H289.255Z" fill="#0F715A" />
  <path d="M311.131 73.6387H316.998V94.4187H311.131V73.6387Z" fill="#0F715A" />
  <path
    d="M327.771 84.0585C327.771 77.5089 332.465 73.1028 338.784 73.1028C345.103 73.1028 349.767 77.5089 349.767 84.0585C349.767 90.608 345.072 94.9546 338.784 94.9546C332.495 94.9546 327.771 90.5485 327.771 84.0585ZM343.478 84.0287C343.478 80.873 341.642 78.5508 338.784 78.5508C335.925 78.5508 334.029 80.873 334.029 84.0287C334.029 87.1844 335.925 89.5363 338.784 89.5363C341.642 89.5363 343.478 87.2142 343.478 84.0287Z"
    fill="#0F715A" />
  <path
    d="M360.539 73.6387H366.346L372.635 82.1531C373.177 82.9272 373.748 83.6417 374.29 84.4157V73.6387H380.157V94.4187H374.38L368.031 85.8745C367.489 85.1004 366.948 84.3859 366.436 83.6417V94.4187H360.539V73.6387Z"
    fill="#0F715A" />
</svg>